<?xml version="1.0"?>
<svg version="1.1" xmlns="http://www.w3.org/2000/svg" width="400" height="50" style=""><path fill="#ffffff" d="M38.94,29.305q0,0.28-0.7175,0.28t-1.435-0.7175t-0.7175-1.75t0.63-1.8725q1.33-1.82,4.445-2.59q2.24-0.56,4.48-0.56l0.28,0q0.315,0,1.715,0.105q-0.07-0.455,0.3675-0.8575t0.9975-0.4025q1.05,0,1.015,1.505q3.78,0.665,3.99,2.03q0.035,0.315,0.035,0.525q0,0.7-0.4025,0.7t-0.2625-0.84q-0.875-1.295-3.465-1.82q-0.63,2.835-6.58,12.32q-3.955,6.23-9.205,10.43q-6.02,4.76-11.34,4.76q-3.255,0-4.83-1.645t-1.575-3.6575t0.77-3.4475q1.855-3.57,5.355-5.565q2.59-1.505,4.795-1.505q2.38,0,3.7275,1.155t1.3475,2.905q0,1.89-1.4,3.43q-0.875,0.98-1.4,0.98q-0.14,0-0.14-0.1225t0.105-0.3325q1.26-1.855,1.26-3.4475t-0.875-2.6075q-1.015-1.085-2.7475-1.085t-3.8675,1.4q-2.625,1.715-4.305,5.145q-0.875,1.715-0.875,3.5525t1.365,2.975t3.675,1.1375q8.89,0,18.585-15.61q5.81-9.31,5.95-11.41q-2.1-0.105-2.205-0.105q-1.645,0-4.2175,0.91t-3.3425,2.24q-0.315,0.525-0.315,1.155t0.665,1.4t0.665,0.91z M47.10095,46.455q-0.385,0-0.7-0.105q-2.24-0.63-2.24-2.52q0-2.45,3.08-5.67t5.53-3.22q0.805,0,1.3125,0.4375t0.5075,1.0675q0,1.96-2.9575,3.745t-4.8125,1.785q-0.28,0-0.49-0.07q-0.525,0.945-0.525,1.995q0,1.82,1.7325,1.82t4.4975-2.345q2.135-1.715,3.64-3.64q0.315-0.42,0.5425-0.42t0.2275,0.21t-0.28,0.595q-1.89,2.485-4.55,4.41t-4.515,1.925z M53.71595,36.375q0-0.42-0.8925-0.42t-2.5375,1.365q-2.205,1.82-3.43,3.815q0.21,0.07,0.455,0.07q1.33,0,3.5525-1.4175t2.7825-3.0975q0.07-0.175,0.07-0.315z M61.4919,34.94q0.945,0,0.945,0.735q0,0.21-0.105,0.42q-3.15,4.375-3.78,6.615q8.155-8.155,9.905-8.155q0.175-0.035,0.315-0.035q0.98,0,0.98,0.875q0,0.175-0.07,0.35t-1.4,1.89q-1.54,1.82-2.6075,3.5t-1.0675,2.8t0.49,1.12q1.54,0,5.355-4.235q0.07-0.07,0.245-0.315q0.525-0.63,0.63-0.63t0.105,0.35t-0.49,0.91q-4.34,4.935-6.16,4.935q-1.715,0-1.715-1.89t1.4-4.34l2.24-3.64q-2.38,1.75-4.235,3.8325t-3.3775,4.0425t-1.7675,1.96q-0.525,0-0.8225-0.4375t-0.2975-1.085t0.455-1.7325t1.155-2.625l-2.1,2.205q-0.77,0.77-0.9625,0.77t-0.1925-0.2275t0.28-0.5075q1.295-1.295,2.24-2.485q0.91-1.19,3.745-4.55q0.315-0.42,0.665-0.42z M86.5288,45.125q-3.08,2.38-4.515,2.38q-0.77,0-1.1375-0.7525t-0.3675-1.6275q0-1.68,1.4175-5.04t2.7125-3.36q0.665,0,1.1375,2.625t0.9625,3.815q2.38-2.52,6.895-8.4q5.67-7.455,7.525-8.155q0.63-0.245,1.295-0.245t1.1025,0.28t0.4375,0.7q0,0.595-1.015,0.7q-1.225,0.665-3.78,3.22q-2.555,2.485-4.095,4.655q-3.745,5.215-7.7,8.505q1.96,2.905,6.16,2.905q0.455,0,1.365-0.07q9.73-0.91,13.79-8.435q1.645-3.01,1.645-5.95t-2.135-5.285q-1.715-1.925-3.7275-2.38t-4.1125-0.455q-5.39,0-9.94,2.485q-4.795,2.625-4.795,5.88q0,0.875,0.4725,1.435t0.6475,0.63l-0.21,0q-0.91-0.175-1.61-0.91q-0.77-0.91-0.77-1.925q0-3.5,4.3925-6.02t10.3075-2.52q2.73,0,5.6,0.63t5.215,3.01q2.695,2.8,2.695,6.335q0,2.625-1.54,5.425q-2.66,4.83-7.945,7.07q-4.235,1.785-9.135,1.785t-7.245-2.94z M81.7688,44.985q0,1.085,0.42,1.89q1.505-0.665,3.64-2.765q-1.015-1.68-1.2775-2.6425t-0.3675-2.5375q-2.415,3.465-2.415,6.055z M86.7738,35.185q0.035,0,0.07-0.035q0,0.07-0.0175,0.07t-0.0525-0.035z M115.54975,46.455q-0.385,0-0.7-0.105q-2.24-0.63-2.24-2.52q0-2.45,3.08-5.67t5.53-3.22q0.805,0,1.3125,0.4375t0.5075,1.0675q0,1.96-2.9575,3.745t-4.8125,1.785q-0.28,0-0.49-0.07q-0.525,0.945-0.525,1.995q0,1.82,1.7325,1.82t4.4975-2.345q2.135-1.715,3.64-3.64q0.315-0.42,0.5425-0.42t0.2275,0.21t-0.28,0.595q-1.89,2.485-4.55,4.41t-4.515,1.925z M122.16475,36.375q0-0.42-0.8925-0.42t-2.5375,1.365q-2.205,1.82-3.43,3.815q0.21,0.07,0.455,0.07q1.33,0,3.5525-1.4175t2.7825-3.0975q0.07-0.175,0.07-0.315z M162.84665,25.28q0,2.765-2.695,6.51q-2.1,2.94-5.5825,4.725t-6.4225,1.785q-1.085,0-1.82-0.245q-1.47,1.89-4.725,5.915q1.225,1.75,4.4275,3.29t5.5125,1.54t3.43-0.63q1.54-0.805,1.54-2.31q0-0.385-0.07-0.735t0.2275-0.35t0.525,0.5075t0.2275,0.8925q0,1.225-1.295,2.31q-1.645,1.33-4.48,1.33t-5.88-1.33t-5.005-3.605q-2.8,2.8-5.32,2.8q-0.77,0-1.33-0.28q-1.225-0.7-1.225-2.66t1.6275-4.83t2.5725-3.045q0.63,0,1.435,1.435l2.205,4.27q1.855-2.45,3.885-5.355q-2.87-1.295-2.87-3.745q0-2.03,1.645-3.29q0.91-0.665,1.9425-0.665t1.5575,1.085q0.105,0.21,0.0175,0.2625t-0.1225,0.0175q-0.7-0.7-1.505-0.7l-0.07,0q-1.015,0-1.7675,1.085t-0.7525,1.995l0,0.21q0,1.82,2.52,3.115q0.42-0.595,1.3475-1.9775t1.4525-2.1525q6.965-10.22,11.585-10.22q3.255,0,3.255,3.045z M159.73165,22.83q-1.75,0-4.34,2.94q-1.785,2.065-4.1825,5.5475t-4.3225,5.9675q0.455,0.105,1.015,0.105q2.45,0,5.6-1.68t4.97-4.235q3.185-4.445,3.185-6.755q0-1.4-1.225-1.785q-0.315-0.105-0.7-0.105z M139.85165,43.725q-0.84-1.155-1.75-2.9575t-1.2075-2.1525t-0.4025-0.35l-0.14,0q-0.63,0.105-1.365,2.24t-0.735,4.1825t1.26,2.0475q0.91,0,2.1875-0.945t2.1525-2.065z M159.1426,46.455q-0.385,0-0.7-0.105q-2.24-0.63-2.24-2.52q0-2.45,3.08-5.67t5.53-3.22q0.805,0,1.3125,0.4375t0.5075,1.0675q0,1.96-2.9575,3.745t-4.8125,1.785q-0.28,0-0.49-0.07q-0.525,0.945-0.525,1.995q0,1.82,1.7325,1.82t4.4975-2.345q2.135-1.715,3.64-3.64q0.315-0.42,0.5425-0.42t0.2275,0.21t-0.28,0.595q-1.89,2.485-4.55,4.41t-4.515,1.925z M165.7576,36.375q0-0.42-0.8925-0.42t-2.5375,1.365q-2.205,1.82-3.43,3.815q0.21,0.07,0.455,0.07q1.33,0,3.5525-1.4175t2.7825-3.0975q0.07-0.175,0.07-0.315z M177.03355,38.58q0,1.225-2.345,4.095q-2.765,3.395-4.725,3.395l-0.56,0q-0.91,0-1.435-0.945q-0.42-0.665-0.42-1.47q0-2.1,3.0625-5.8975t4.9525-3.7975q1.785,0,1.785,1.89q0,0.49-0.175,1.26q0.035,0.105,0.665,0.105t1.925-0.665q-0.035,0.595-2.765,1.715q0.035,0.14,0.035,0.315z M174.75855,36.76q-1.19,0-3.3775,2.8t-2.1875,4.13t0.84,1.33q1.505,0,3.815-2.73t2.31-3.92q-0.56-0.315-1.4-1.61z M184.9145,34.94q0.945,0,0.945,0.735q0,0.21-0.105,0.42q-3.15,4.375-3.78,6.615q8.155-8.155,9.905-8.155q0.175-0.035,0.315-0.035q0.98,0,0.98,0.875q0,0.175-0.07,0.35t-1.4,1.89q-1.54,1.82-2.6075,3.5t-1.0675,2.8t0.49,1.12q1.54,0,5.355-4.235q0.07-0.07,0.245-0.315q0.525-0.63,0.63-0.63t0.105,0.35t-0.49,0.91q-4.34,4.935-6.16,4.935q-1.715,0-1.715-1.89t1.4-4.34l2.24-3.64q-2.38,1.75-4.235,3.8325t-3.3775,4.0425t-1.7675,1.96q-0.525,0-0.8225-0.4375t-0.2975-1.085t0.455-1.7325t1.155-2.625l-2.1,2.205q-0.77,0.77-0.9625,0.77t-0.1925-0.2275t0.28-0.5075q1.295-1.295,2.24-2.485q0.91-1.19,3.745-4.55q0.315-0.42,0.665-0.42z"/><path fill="#" d=""/></svg>
